{
	"asset":{
		"generator":"Khronos glTF Blender I/O v3.5.30",
		"version":"2.0"
	},
	"scene":0,
	"scenes":[
		{
			"name":"Scene",
			"nodes":[
				0,
				1,
				2,
				3,
				4,
				5,
				6,
				7,
				8,
				9,
				10,
				11
			]
		}
	],
	"nodes":[
		{
			"extras":{
				"type":"Building"
			},
			"mesh":0,
			"name":"Building 2",
			"rotation":[
				0,
				-0.6088756322860718,
				0,
				0.793265700340271
			],
			"scale":[
				14.718403816223145,
				13.739745140075684,
				6.6114678382873535
			],
			"translation":[
				-43.97490692138672,
				14.218619346618652,
				4.587920188903809
			]
		},
		{
			"extras":{
				"type":"Building"
			},
			"mesh":1,
			"name":"Building 4",
			"rotation":[
				0,
				-0.6926475167274475,
				0,
				0.7212762236595154
			],
			"scale":[
				6.304476261138916,
				13.739745140075684,
				6.9211015701293945
			],
			"translation":[
				0.47878265380859375,
				14.322632789611816,
				25.104717254638672
			]
		},
		{
			"mesh":2,
			"name":"Ground",
			"rotation":[
				0,
				0,
				-1,
				0
			],
			"scale":[
				-252.41436767578125,
				-0.5,
				-147.11961364746094
			]
		},
		{
			"extras":{
				"type":"Building"
			},
			"mesh":3,
			"name":"Building 1",
			"scale":[
				10.690707206726074,
				13.739745140075684,
				3.408818244934082
			],
			"translation":[
				33.969058990478516,
				14.155817985534668,
				-34.583316802978516
			]
		},
		{
			"extras":{
				"type":"Building"
			},
			"mesh":4,
			"name":"Building 3",
			"rotation":[
				0,
				0.18960429728031158,
				0,
				0.9818606972694397
			],
			"scale":[
				5.143282413482666,
				13.739745140075684,
				3.408818244934082
			],
			"translation":[
				0.9464187622070312,
				12.223220825195312,
				-32.41652297973633
			]
		},
		{
			"extras":{
				"type":"Spawner"
			},
			"mesh":5,
			"name":"Spawn point 1",
			"rotation":[
				0.6088756322860718,
				0,
				-0.793265700340271,
				0
			],
			"scale":[
				-0.9663203954696655,
				-1,
				-0.2747364044189453
			],
			"translation":[
				-34.920005798339844,
				1.3368289470672607,
				13.084948539733887
			]
		},
		{
			"extras":{
				"type":"Spawner"
			},
			"mesh":5,
			"name":"Spawn point 2",
			"rotation":[
				-0.02404041588306427,
				0,
				-0.9997110962867737,
				0
			],
			"scale":[
				-0.9663205146789551,
				-1,
				-0.2747364044189453
			],
			"translation":[
				-3.1969876289367676,
				1.2147002220153809,
				19.006345748901367
			]
		},
		{
			"extras":{
				"type":"Spawner"
			},
			"mesh":6,
			"name":"Spawn point 3",
			"rotation":[
				-0.02404041588306427,
				0,
				-0.9997110962867737,
				0
			],
			"scale":[
				-0.9663205146789551,
				-1,
				-0.2747364044189453
			],
			"translation":[
				40.071868896484375,
				1.4426469802856445,
				-31.200592041015625
			]
		},
		{
			"mesh":7,
			"name":"Cube",
			"rotation":[
				0,
				0.007966113276779652,
				0,
				0.9999682903289795
			],
			"scale":[
				3.4257044792175293,
				0.20000000298023224,
				4.214088439941406
			],
			"translation":[
				3.663330078125,
				0.7037993669509888,
				12.051149368286133
			]
		},
		{
			"extras":{
				"type":"Building"
			},
			"mesh":8,
			"name":"Building 4.001",
			"rotation":[
				0,
				-0.6926475167274475,
				0,
				0.7212762236595154
			],
			"scale":[
				6.304476261138916,
				13.739745140075684,
				6.9211015701293945
			],
			"translation":[
				14.349287986755371,
				14.322632789611816,
				29.44037437438965
			]
		},
		{
			"extras":{
				"type":"Building"
			},
			"mesh":9,
			"name":"Building 4.002",
			"rotation":[
				0,
				-0.6926475167274475,
				0,
				0.7212762236595154
			],
			"scale":[
				6.304476261138916,
				13.739745140075684,
				6.9211015701293945
			],
			"translation":[
				28.148927688598633,
				14.322632789611816,
				33.42966079711914
			]
		},
		{
			"mesh":10,
			"name":"Cube.001",
			"rotation":[
				0,
				0.007966113276779652,
				0,
				0.9999682903289795
			],
			"scale":[
				3.4257044792175293,
				0.20000000298023224,
				4.214088439941406
			],
			"translation":[
				18.026779174804688,
				0.7037993669509888,
				15.455663681030273
			]
		}
	],
	"materials":[
		{
			"doubleSided":true,
			"name":"Building",
			"pbrMetallicRoughness":{
				"baseColorFactor":[
					0.4969230890274048,
					0.36371657252311707,
					0.22173020243644714,
					1
				],
				"metallicFactor":0,
				"roughnessFactor":0.5
			}
		},
		{
			"doubleSided":true,
			"name":"Ground",
			"pbrMetallicRoughness":{
				"baseColorFactor":[
					0.800000011920929,
					0.800000011920929,
					0.800000011920929,
					1
				],
				"metallicFactor":0,
				"roughnessFactor":0.4000000059604645
			}
		},
		{
			"doubleSided":true,
			"name":"Spawner",
			"pbrMetallicRoughness":{
				"baseColorFactor":[
					0.11068878322839737,
					0.033744845539331436,
					0.010096246376633644,
					1
				],
				"metallicFactor":0,
				"roughnessFactor":0.5
			}
		},
		{
			"doubleSided":true,
			"name":"Spawner.004",
			"pbrMetallicRoughness":{
				"baseColorFactor":[
					0.11068878322839737,
					0.033744845539331436,
					0.010096246376633644,
					1
				],
				"metallicFactor":0,
				"roughnessFactor":0.5
			}
		},
		{
			"doubleSided":true,
			"name":"Building.001",
			"pbrMetallicRoughness":{
				"baseColorFactor":[
					0.4969230890274048,
					0.36371657252311707,
					0.22173020243644714,
					1
				],
				"metallicFactor":0,
				"roughnessFactor":0.5
			}
		},
		{
			"doubleSided":true,
			"name":"Building.002",
			"pbrMetallicRoughness":{
				"baseColorFactor":[
					0.4969230890274048,
					0.36371657252311707,
					0.22173020243644714,
					1
				],
				"metallicFactor":0,
				"roughnessFactor":0.5
			}
		}
	],
	"meshes":[
		{
			"name":"Cube.003",
			"primitives":[
				{
					"attributes":{
						"POSITION":0,
						"TEXCOORD_0":1,
						"NORMAL":2
					},
					"indices":3,
					"material":0
				}
			]
		},
		{
			"name":"Cube.004",
			"primitives":[
				{
					"attributes":{
						"POSITION":4,
						"TEXCOORD_0":5,
						"NORMAL":6
					},
					"indices":3,
					"material":0
				}
			]
		},
		{
			"name":"Cube",
			"primitives":[
				{
					"attributes":{
						"POSITION":7,
						"TEXCOORD_0":8,
						"NORMAL":9
					},
					"indices":10,
					"material":1
				}
			]
		},
		{
			"name":"Cube.001",
			"primitives":[
				{
					"attributes":{
						"POSITION":11,
						"TEXCOORD_0":12,
						"NORMAL":13
					},
					"indices":3,
					"material":0
				}
			]
		},
		{
			"name":"Cube.002",
			"primitives":[
				{
					"attributes":{
						"POSITION":14,
						"TEXCOORD_0":15,
						"NORMAL":16
					},
					"indices":3,
					"material":0
				}
			]
		},
		{
			"name":"Cube.005",
			"primitives":[
				{
					"attributes":{
						"POSITION":17,
						"TEXCOORD_0":18,
						"NORMAL":19
					},
					"indices":3,
					"material":2
				}
			]
		},
		{
			"name":"Cube.009",
			"primitives":[
				{
					"attributes":{
						"POSITION":20,
						"TEXCOORD_0":21,
						"NORMAL":22
					},
					"indices":3,
					"material":3
				}
			]
		},
		{
			"name":"Cube.006",
			"primitives":[
				{
					"attributes":{
						"POSITION":23,
						"TEXCOORD_0":24,
						"NORMAL":25
					},
					"indices":3
				}
			]
		},
		{
			"name":"Cube.007",
			"primitives":[
				{
					"attributes":{
						"POSITION":26,
						"TEXCOORD_0":27,
						"NORMAL":28
					},
					"indices":3,
					"material":4
				}
			]
		},
		{
			"name":"Cube.008",
			"primitives":[
				{
					"attributes":{
						"POSITION":29,
						"TEXCOORD_0":30,
						"NORMAL":31
					},
					"indices":3,
					"material":5
				}
			]
		},
		{
			"name":"Cube.010",
			"primitives":[
				{
					"attributes":{
						"POSITION":32,
						"TEXCOORD_0":33,
						"NORMAL":34
					},
					"indices":3
				}
			]
		}
	],
	"accessors":[
		{
			"bufferView":0,
			"componentType":5126,
			"count":24,
			"max":[
				1,
				1,
				1
			],
			"min":[
				-1,
				-1,
				-1
			],
			"type":"VEC3"
		},
		{
			"bufferView":1,
			"componentType":5126,
			"count":24,
			"type":"VEC2"
		},
		{
			"bufferView":2,
			"componentType":5126,
			"count":24,
			"type":"VEC3"
		},
		{
			"bufferView":3,
			"componentType":5123,
			"count":36,
			"type":"SCALAR"
		},
		{
			"bufferView":4,
			"componentType":5126,
			"count":24,
			"max":[
				1,
				1,
				1
			],
			"min":[
				-1,
				-1,
				-1
			],
			"type":"VEC3"
		},
		{
			"bufferView":5,
			"componentType":5126,
			"count":24,
			"type":"VEC2"
		},
		{
			"bufferView":6,
			"componentType":5126,
			"count":24,
			"type":"VEC3"
		},
		{
			"bufferView":7,
			"componentType":5126,
			"count":24,
			"max":[
				1,
				1,
				1
			],
			"min":[
				-1,
				-1,
				-1
			],
			"type":"VEC3"
		},
		{
			"bufferView":8,
			"componentType":5126,
			"count":24,
			"type":"VEC2"
		},
		{
			"bufferView":9,
			"componentType":5126,
			"count":24,
			"type":"VEC3"
		},
		{
			"bufferView":10,
			"componentType":5123,
			"count":36,
			"type":"SCALAR"
		},
		{
			"bufferView":11,
			"componentType":5126,
			"count":24,
			"max":[
				1,
				1,
				1
			],
			"min":[
				-1,
				-1,
				-1
			],
			"type":"VEC3"
		},
		{
			"bufferView":12,
			"componentType":5126,
			"count":24,
			"type":"VEC2"
		},
		{
			"bufferView":13,
			"componentType":5126,
			"count":24,
			"type":"VEC3"
		},
		{
			"bufferView":14,
			"componentType":5126,
			"count":24,
			"max":[
				1,
				1,
				1
			],
			"min":[
				-1,
				-1,
				-1
			],
			"type":"VEC3"
		},
		{
			"bufferView":15,
			"componentType":5126,
			"count":24,
			"type":"VEC2"
		},
		{
			"bufferView":16,
			"componentType":5126,
			"count":24,
			"type":"VEC3"
		},
		{
			"bufferView":17,
			"componentType":5126,
			"count":24,
			"max":[
				1,
				1,
				1
			],
			"min":[
				-1,
				-1,
				-1
			],
			"type":"VEC3"
		},
		{
			"bufferView":18,
			"componentType":5126,
			"count":24,
			"type":"VEC2"
		},
		{
			"bufferView":19,
			"componentType":5126,
			"count":24,
			"type":"VEC3"
		},
		{
			"bufferView":20,
			"componentType":5126,
			"count":24,
			"max":[
				1,
				1,
				1
			],
			"min":[
				-1,
				-1,
				-1
			],
			"type":"VEC3"
		},
		{
			"bufferView":21,
			"componentType":5126,
			"count":24,
			"type":"VEC2"
		},
		{
			"bufferView":22,
			"componentType":5126,
			"count":24,
			"type":"VEC3"
		},
		{
			"bufferView":23,
			"componentType":5126,
			"count":24,
			"max":[
				1,
				1,
				1
			],
			"min":[
				-1,
				-1,
				-1
			],
			"type":"VEC3"
		},
		{
			"bufferView":24,
			"componentType":5126,
			"count":24,
			"type":"VEC2"
		},
		{
			"bufferView":25,
			"componentType":5126,
			"count":24,
			"type":"VEC3"
		},
		{
			"bufferView":26,
			"componentType":5126,
			"count":24,
			"max":[
				1,
				1,
				1
			],
			"min":[
				-1,
				-1,
				-1
			],
			"type":"VEC3"
		},
		{
			"bufferView":27,
			"componentType":5126,
			"count":24,
			"type":"VEC2"
		},
		{
			"bufferView":28,
			"componentType":5126,
			"count":24,
			"type":"VEC3"
		},
		{
			"bufferView":29,
			"componentType":5126,
			"count":24,
			"max":[
				1,
				1,
				1
			],
			"min":[
				-1,
				-1,
				-1
			],
			"type":"VEC3"
		},
		{
			"bufferView":30,
			"componentType":5126,
			"count":24,
			"type":"VEC2"
		},
		{
			"bufferView":31,
			"componentType":5126,
			"count":24,
			"type":"VEC3"
		},
		{
			"bufferView":32,
			"componentType":5126,
			"count":24,
			"max":[
				1,
				1,
				1
			],
			"min":[
				-1,
				-1,
				-1
			],
			"type":"VEC3"
		},
		{
			"bufferView":33,
			"componentType":5126,
			"count":24,
			"type":"VEC2"
		},
		{
			"bufferView":34,
			"componentType":5126,
			"count":24,
			"type":"VEC3"
		}
	],
	"bufferViews":[
		{
			"buffer":0,
			"byteLength":288,
			"byteOffset":0,
			"target":34962
		},
		{
			"buffer":0,
			"byteLength":192,
			"byteOffset":288,
			"target":34962
		},
		{
			"buffer":0,
			"byteLength":288,
			"byteOffset":480,
			"target":34962
		},
		{
			"buffer":0,
			"byteLength":72,
			"byteOffset":768,
			"target":34963
		},
		{
			"buffer":0,
			"byteLength":288,
			"byteOffset":840,
			"target":34962
		},
		{
			"buffer":0,
			"byteLength":192,
			"byteOffset":1128,
			"target":34962
		},
		{
			"buffer":0,
			"byteLength":288,
			"byteOffset":1320,
			"target":34962
		},
		{
			"buffer":0,
			"byteLength":288,
			"byteOffset":1608,
			"target":34962
		},
		{
			"buffer":0,
			"byteLength":192,
			"byteOffset":1896,
			"target":34962
		},
		{
			"buffer":0,
			"byteLength":288,
			"byteOffset":2088,
			"target":34962
		},
		{
			"buffer":0,
			"byteLength":72,
			"byteOffset":2376,
			"target":34963
		},
		{
			"buffer":0,
			"byteLength":288,
			"byteOffset":2448,
			"target":34962
		},
		{
			"buffer":0,
			"byteLength":192,
			"byteOffset":2736,
			"target":34962
		},
		{
			"buffer":0,
			"byteLength":288,
			"byteOffset":2928,
			"target":34962
		},
		{
			"buffer":0,
			"byteLength":288,
			"byteOffset":3216,
			"target":34962
		},
		{
			"buffer":0,
			"byteLength":192,
			"byteOffset":3504,
			"target":34962
		},
		{
			"buffer":0,
			"byteLength":288,
			"byteOffset":3696,
			"target":34962
		},
		{
			"buffer":0,
			"byteLength":288,
			"byteOffset":3984,
			"target":34962
		},
		{
			"buffer":0,
			"byteLength":192,
			"byteOffset":4272,
			"target":34962
		},
		{
			"buffer":0,
			"byteLength":288,
			"byteOffset":4464,
			"target":34962
		},
		{
			"buffer":0,
			"byteLength":288,
			"byteOffset":4752,
			"target":34962
		},
		{
			"buffer":0,
			"byteLength":192,
			"byteOffset":5040,
			"target":34962
		},
		{
			"buffer":0,
			"byteLength":288,
			"byteOffset":5232,
			"target":34962
		},
		{
			"buffer":0,
			"byteLength":288,
			"byteOffset":5520,
			"target":34962
		},
		{
			"buffer":0,
			"byteLength":192,
			"byteOffset":5808,
			"target":34962
		},
		{
			"buffer":0,
			"byteLength":288,
			"byteOffset":6000,
			"target":34962
		},
		{
			"buffer":0,
			"byteLength":288,
			"byteOffset":6288,
			"target":34962
		},
		{
			"buffer":0,
			"byteLength":192,
			"byteOffset":6576,
			"target":34962
		},
		{
			"buffer":0,
			"byteLength":288,
			"byteOffset":6768,
			"target":34962
		},
		{
			"buffer":0,
			"byteLength":288,
			"byteOffset":7056,
			"target":34962
		},
		{
			"buffer":0,
			"byteLength":192,
			"byteOffset":7344,
			"target":34962
		},
		{
			"buffer":0,
			"byteLength":288,
			"byteOffset":7536,
			"target":34962
		},
		{
			"buffer":0,
			"byteLength":288,
			"byteOffset":7824,
			"target":34962
		},
		{
			"buffer":0,
			"byteLength":192,
			"byteOffset":8112,
			"target":34962
		},
		{
			"buffer":0,
			"byteLength":288,
			"byteOffset":8304,
			"target":34962
		}
	],
	"buffers":[
		{
			"byteLength":8592,
			"uri":"data:application/octet-stream;base64,"
		}
	]
}
